<svg xmlns="http://www.w3.org/2000/svg" width="64" height="64" viewBox="0 0 24 24" fill="none">
    <rect width="24" height="24" rx="6" fill="#0B1220" />
    <path
        d="M12 2c-5.52 0-10 4.48-10 10 0 4.42 2.87 8.17 6.84 9.49.5.09.68-.22.68-.48 0-.24-.01-.87-.01-1.71-2.78.6-3.37-1.2-3.37-1.2-.45-1.14-1.11-1.44-1.11-1.44-.91-.62.07-.61.07-.61 1.01.07 1.54 1.04 1.54 1.04.9 1.54 2.36 1.1 2.94.84.09-.65.35-1.1.63-1.35-2.22-.25-4.56-1.11-4.56-4.95 0-1.09.39-1.98 1.03-2.68-.1-.25-.45-1.27.1-2.65 0 0 .84-.27 2.75 1.02A9.56 9.56 0 0112 6.8c.85.004 1.71.115 2.51.338 1.9-1.3 2.75-1.02 2.75-1.02.55 1.38.2 2.4.1 2.65.64.7 1.03 1.59 1.03 2.68 0 3.85-2.34 4.7-4.57 4.95.36.31.68.92.68 1.85 0 1.33-.01 2.4-.01 2.73 0 .26.18.58.69.48A10 10 0 0012 2z"
        fill="#FFFFFF" />
</svg>